<svg width="64" height="58" viewBox="0 0 64 58" fill="none" xmlns="http://www.w3.org/2000/svg">
<path d="M32.4514 0.000307878C31.9402 0.0100868 31.4532 0.220052 31.0952 0.585069C30.7372 0.950085 30.5366 1.44101 30.5367 1.95231V39.0563C30.5367 39.574 30.7424 40.0705 31.1085 40.4366C31.4745 40.8027 31.971 41.0083 32.4887 41.0083C33.0064 41.0083 33.5029 40.8027 33.869 40.4366C34.2351 40.0705 34.4407 39.574 34.4407 39.0563V1.95231C34.4408 1.69302 34.3892 1.43633 34.2889 1.19721C34.1886 0.958099 34.0418 0.741354 33.8568 0.559633C33.6719 0.377913 33.4526 0.234859 33.2117 0.138826C32.9709 0.0427924 32.7106 -0.00429689 32.4514 0.000307878ZM61.9874 11.115C61.7326 11.1223 61.4817 11.1794 61.2487 11.283L44.4967 18.7603C44.154 18.9151 43.8632 19.1655 43.6592 19.4815C43.4553 19.7975 43.3468 20.1656 43.3468 20.5416C43.3468 20.9177 43.4553 21.2858 43.6592 21.6018C43.8632 21.9177 44.154 22.1681 44.4967 22.323L61.2487 29.8243C61.5003 29.9375 61.7729 29.9966 62.0487 29.9976C62.495 29.9962 62.9273 29.8419 63.2737 29.5604C63.62 29.279 63.8594 28.8873 63.952 28.4507C64.0447 28.0142 63.9849 27.559 63.7827 27.1612C63.5804 26.7633 63.248 26.4468 62.8407 26.2643L50.0781 20.5443L62.8407 14.8456C63.3119 14.6335 63.6801 14.2436 63.865 13.761C64.0498 13.2784 64.0363 12.7423 63.8274 12.2696C63.669 11.917 63.4097 11.6191 63.0823 11.4136C62.7548 11.2081 62.3738 11.1042 61.9874 11.115ZM1.9874 24.5336C1.68652 24.5282 1.38846 24.5924 1.11649 24.7212C0.844523 24.85 0.606018 25.0399 0.419609 25.2762C0.2332 25.5124 0.103934 25.7885 0.0419108 26.083C-0.0201126 26.3775 -0.0132142 26.6823 0.0620671 26.9736C4.6914 44.779 20.7954 57.2163 39.2167 57.2163C39.7344 57.2163 40.2309 57.0106 40.597 56.6446C40.9631 56.2785 41.1687 55.782 41.1687 55.2643C41.1687 54.7466 40.9631 54.2501 40.597 53.884C40.2309 53.518 39.7344 53.3123 39.2167 53.3123C31.1282 53.3155 23.267 50.6355 16.8648 45.6921C10.4627 40.7487 5.88116 33.8213 3.83807 25.995C3.73065 25.5834 3.49173 25.2182 3.15767 24.9549C2.8236 24.6916 2.41268 24.5419 1.9874 24.5336Z" fill="url(#paint0_linear_5_5)"/>
<defs>
<linearGradient id="paint0_linear_5_5" x1="31.9973" y1="0" x2="31.9973" y2="57.2163" gradientUnits="userSpaceOnUse">
<stop stop-color="#F7B733"/>
<stop offset="1" stop-color="#FC4A1A"/>
</linearGradient>
</defs>
</svg>
