<svg width="64" height="61" viewBox="0 0 64 61" fill="none" xmlns="http://www.w3.org/2000/svg">
<g filter="url(#filter0_d_5_5)">
<path d="M32.4533 0.000307878C31.9421 0.0100868 31.4552 0.220052 31.0971 0.585069C30.7391 0.950085 30.5386 1.44101 30.5387 1.95231V39.0563C30.5387 39.574 30.7443 40.0705 31.1104 40.4366C31.4765 40.8027 31.973 41.0083 32.4907 41.0083C33.0084 41.0083 33.5049 40.8027 33.8709 40.4366C34.237 40.0705 34.4427 39.574 34.4427 39.0563V1.95231C34.4427 1.69302 34.3911 1.43633 34.2908 1.19721C34.1906 0.958099 34.0437 0.741354 33.8587 0.559633C33.6738 0.377913 33.4545 0.234859 33.2136 0.138826C32.9728 0.0427924 32.7126 -0.00429689 32.4533 0.000307878ZM61.9893 11.115C61.7345 11.1223 61.4836 11.1794 61.2507 11.283L44.4987 18.7603C44.1559 18.9151 43.8651 19.1655 43.6612 19.4815C43.4572 19.7975 43.3487 20.1656 43.3487 20.5416C43.3487 20.9177 43.4572 21.2858 43.6612 21.6018C43.8651 21.9177 44.1559 22.1681 44.4987 22.323L61.2507 29.8243C61.5022 29.9375 61.7748 29.9966 62.0507 29.9976C62.4969 29.9962 62.9293 29.8419 63.2756 29.5604C63.6219 29.279 63.8614 28.8873 63.954 28.4507C64.0466 28.0142 63.9868 27.559 63.7846 27.1612C63.5824 26.7633 63.2499 26.4468 62.8427 26.2643L50.08 20.5443L62.8427 14.8456C63.3139 14.6335 63.682 14.2436 63.8669 13.761C64.0517 13.2784 64.0382 12.7423 63.8293 12.2696C63.6709 11.917 63.4117 11.6191 63.0842 11.4136C62.7567 11.2081 62.3758 11.1042 61.9893 11.115ZM1.98932 24.5336C1.68845 24.5282 1.39038 24.5924 1.11841 24.7212C0.846445 24.85 0.607941 25.0399 0.421531 25.2762C0.235122 25.5124 0.105857 25.7885 0.0438334 26.083C-0.01819 26.3775 -0.0112916 26.6823 0.0639897 26.9736C4.69332 44.779 20.7973 57.2163 39.2187 57.2163C39.7364 57.2163 40.2329 57.0106 40.5989 56.6446C40.965 56.2785 41.1707 55.782 41.1707 55.2643C41.1707 54.7466 40.965 54.2501 40.5989 53.884C40.2329 53.518 39.7364 53.3123 39.2187 53.3123C31.1301 53.3155 23.2689 50.6355 16.8668 45.6921C10.4646 40.7487 5.88308 33.8213 3.83999 25.995C3.73257 25.5834 3.49365 25.2182 3.15959 24.9549C2.82553 24.6916 2.4146 24.5419 1.98932 24.5336Z" fill="url(#paint0_linear_5_5)"/>
</g>
<defs>
<filter id="filter0_d_5_5" x="-3.99808" y="0" width="71.9945" height="65.2163" filterUnits="userSpaceOnUse" color-interpolation-filters="sRGB">
<feFlood flood-opacity="0" result="BackgroundImageFix"/>
<feColorMatrix in="SourceAlpha" type="matrix" values="0 0 0 0 0 0 0 0 0 0 0 0 0 0 0 0 0 0 127 0" result="hardAlpha"/>
<feOffset dy="4"/>
<feGaussianBlur stdDeviation="2"/>
<feComposite in2="hardAlpha" operator="out"/>
<feColorMatrix type="matrix" values="0 0 0 0 0 0 0 0 0 0 0 0 0 0 0 0 0 0 0.25 0"/>
<feBlend mode="normal" in2="BackgroundImageFix" result="effect1_dropShadow_5_5"/>
<feBlend mode="normal" in="SourceGraphic" in2="effect1_dropShadow_5_5" result="shape"/>
</filter>
<linearGradient id="paint0_linear_5_5" x1="31.9992" y1="0" x2="31.9992" y2="57.2163" gradientUnits="userSpaceOnUse">
<stop stop-color="#F7B733"/>
<stop offset="1" stop-color="#FC4A1A"/>
</linearGradient>
</defs>
</svg>
