<svg width="64" height="59" viewBox="0 0 64 59" fill="none" xmlns="http://www.w3.org/2000/svg">
<path d="M32.4533 0.640307C31.9421 0.650086 31.4552 0.860052 31.0971 1.22507C30.7391 1.59008 30.5386 2.08101 30.5387 2.59231V39.6963C30.5387 40.214 30.7443 40.7105 31.1104 41.0766C31.4765 41.4427 31.973 41.6483 32.4907 41.6483C33.0084 41.6483 33.5049 41.4427 33.8709 41.0766C34.237 40.7105 34.4427 40.214 34.4427 39.6963V2.59231C34.4427 2.33302 34.3911 2.07633 34.2908 1.83721C34.1906 1.5981 34.0437 1.38135 33.8587 1.19963C33.6738 1.01791 33.4545 0.874859 33.2136 0.778825C32.9728 0.682792 32.7126 0.635703 32.4533 0.640307ZM61.9893 11.755C61.7345 11.7623 61.4836 11.8194 61.2507 11.923L44.4987 19.4003C44.1559 19.5551 43.8651 19.8055 43.6612 20.1215C43.4572 20.4375 43.3487 20.8056 43.3487 21.1816C43.3487 21.5577 43.4572 21.9258 43.6612 22.2418C43.8651 22.5577 44.1559 22.8081 44.4987 22.963L61.2507 30.4643C61.5022 30.5775 61.7748 30.6366 62.0507 30.6376C62.4969 30.6362 62.9293 30.4819 63.2756 30.2004C63.6219 29.919 63.8614 29.5273 63.954 29.0907C64.0466 28.6542 63.9868 28.199 63.7846 27.8012C63.5824 27.4033 63.2499 27.0868 62.8427 26.9043L50.08 21.1843L62.8427 15.4856C63.3139 15.2735 63.682 14.8836 63.8669 14.401C64.0517 13.9184 64.0382 13.3823 63.8293 12.9096C63.6709 12.557 63.4117 12.2591 63.0842 12.0536C62.7567 11.8481 62.3758 11.7442 61.9893 11.755ZM1.98932 25.1736C1.68845 25.1682 1.39038 25.2324 1.11841 25.3612C0.846445 25.49 0.607941 25.6799 0.421531 25.9162C0.235122 26.1524 0.105857 26.4285 0.0438334 26.723C-0.01819 27.0175 -0.0112916 27.3223 0.0639897 27.6136C4.69332 45.419 20.7973 57.8563 39.2187 57.8563C39.7364 57.8563 40.2329 57.6506 40.5989 57.2846C40.965 56.9185 41.1707 56.422 41.1707 55.9043C41.1707 55.3866 40.965 54.8901 40.5989 54.524C40.2329 54.158 39.7364 53.9523 39.2187 53.9523C31.1301 53.9555 23.2689 51.2755 16.8668 46.3321C10.4646 41.3887 5.88308 34.4613 3.83999 26.635C3.73257 26.2234 3.49365 25.8582 3.15959 25.5949C2.82553 25.3316 2.4146 25.1819 1.98932 25.1736Z" fill="url(#paint0_linear_5_5)" stroke="black" stroke-width="1.28"/>
<defs>
<linearGradient id="paint0_linear_5_5" x1="31.9992" y1="0.639999" x2="31.9992" y2="57.8563" gradientUnits="userSpaceOnUse">
<stop stop-color="#F7B733"/>
<stop offset="1" stop-color="#FC4A1A"/>
</linearGradient>
</defs>
</svg>
