<svg width="48" height="48" viewBox="0 0 48 48" fill="none" xmlns="http://www.w3.org/2000/svg">
<g clip-path="url(#clip0_11_20)">
<path d="M24.0321 13.2187C22.4141 13.215 20.811 13.4903 19.3145 14.0286C17.818 14.567 16.4573 15.3581 15.3102 16.3566C12.9934 18.3732 11.6871 21.1125 11.6786 23.9719C11.6701 26.8312 12.96 29.5764 15.2647 31.6036C17.5694 33.6307 20.7 34.7738 23.9679 34.7812C27.2357 34.7887 30.3731 33.66 32.6898 31.6434C35.0066 29.6268 36.3129 26.8875 36.3214 24.0281C36.33 21.1687 35.04 18.4235 32.7353 16.3964C30.4306 14.3692 27.3 13.2262 24.0321 13.2187ZM23.9679 17.0062C25.0175 17.0025 26.0577 17.1798 27.029 17.5278C28.0004 17.8759 28.8839 18.388 29.6291 19.0348C30.3743 19.6816 30.9666 20.4505 31.3721 21.2976C31.7777 22.1447 31.9886 23.0534 31.9929 23.9719C31.9971 24.8903 31.7945 25.8005 31.3967 26.6504C30.999 27.5003 30.4138 28.2734 29.6745 28.9254C28.9353 29.5775 28.0566 30.0957 27.0884 30.4506C26.1203 30.8055 25.0818 30.99 24.0321 30.9937C22.9825 30.9974 21.9423 30.8202 20.971 30.4721C19.9996 30.1241 19.1161 29.612 18.3709 28.9652C17.6257 28.3184 17.0334 27.5495 16.6279 26.7024C16.2223 25.8553 16.0114 24.9465 16.0071 24.0281C16.0029 23.1097 16.2055 22.1995 16.6033 21.3496C17.001 20.4996 17.5863 19.7266 18.3255 19.0745C19.0647 18.4225 19.9435 17.9042 20.9116 17.5494C21.8797 17.1945 22.9182 17.0099 23.9679 17.0062ZM33.975 12.7781C33.975 12.1118 34.2775 11.4727 34.816 11.0015C35.3545 10.5303 36.0849 10.2656 36.8464 10.2656C37.608 10.2656 38.3383 10.5303 38.8768 11.0015C39.4153 11.4727 39.7179 12.1118 39.7179 12.7781C39.7179 13.4445 39.4153 14.0835 38.8768 14.5547C38.3383 15.0259 37.608 15.2906 36.8464 15.2906C36.0849 15.2906 35.3545 15.0259 34.816 14.5547C34.2775 14.0835 33.975 13.4445 33.975 12.7781ZM47.8714 15.3281C47.6893 11.9625 46.8107 8.98124 43.9929 6.52499C41.1857 4.06874 37.7786 3.29999 33.9321 3.13124C29.9679 2.93436 18.0857 2.93436 14.1214 3.13124C10.2857 3.29061 6.87858 4.05936 4.06072 6.51561C1.24286 8.97186 0.375004 11.9531 0.182147 15.3187C-0.0428528 18.7875 -0.0428528 29.1844 0.182147 32.6531C0.36429 36.0187 1.24286 39 4.06072 41.4562C6.87858 43.9125 10.275 44.6812 14.1214 44.85C18.0857 45.0469 29.9679 45.0469 33.9321 44.85C37.7786 44.6906 41.1857 43.9219 43.9929 41.4562C46.8 39 47.6786 36.0187 47.8714 32.6531C48.0964 29.1844 48.0964 18.7969 47.8714 15.3281ZM42.75 36.375C41.9143 38.2125 40.2964 39.6281 38.1857 40.3687C35.025 41.4656 27.525 41.2125 24.0321 41.2125C20.5393 41.2125 13.0286 41.4562 9.87858 40.3687C7.77858 39.6375 6.16072 38.2219 5.31429 36.375C4.06072 33.6094 4.35 27.0469 4.35 23.9906C4.35 20.9344 4.07143 14.3625 5.31429 11.6062C6.15 9.76874 7.76786 8.35311 9.87858 7.61249C13.0393 6.51561 20.5393 6.76874 24.0321 6.76874C27.525 6.76874 35.0357 6.52499 38.1857 7.61249C40.2857 8.34374 41.9036 9.75936 42.75 11.6062C44.0036 14.3719 43.7143 20.9344 43.7143 23.9906C43.7143 27.0469 44.0036 33.6187 42.75 36.375Z" fill="black"/>
</g>
<defs>
<clipPath id="clip0_11_20">
<rect width="48" height="48" fill="white"/>
</clipPath>
</defs>
</svg>
