<svg width="48" height="48" viewBox="0 0 48 48" fill="none" xmlns="http://www.w3.org/2000/svg">
<g clip-path="url(#clip0_11_20)">
<rect width="48" height="48" rx="8" fill="url(#paint0_linear_11_20)"/>
<path d="M24.0054 13.2281C22.3873 13.2244 20.7842 13.4997 19.2877 14.038C17.7912 14.5764 16.4305 15.3675 15.2834 16.366C12.9666 18.3826 11.6603 21.1219 11.6518 23.9813C11.6433 26.8406 12.9332 29.5858 15.2379 31.613C17.5426 33.6401 20.6732 34.7832 23.9411 34.7906C27.2089 34.7981 30.3463 33.6694 32.663 31.6528C34.9798 29.6362 36.2861 26.8969 36.2946 24.0375C36.3032 21.1781 35.0132 18.4329 32.7085 16.4058C30.4038 14.3786 27.2732 13.2356 24.0054 13.2281ZM23.9411 17.0156C24.9907 17.0119 26.0309 17.1892 27.0022 17.5372C27.9736 17.8853 28.8571 18.3974 29.6023 19.0442C30.3475 19.691 30.9398 20.4599 31.3453 21.307C31.7509 22.1541 31.9618 23.0628 31.9661 23.9813C31.9703 24.8997 31.7677 25.8099 31.3699 26.6598C30.9722 27.5097 30.387 28.2828 29.6477 28.9348C28.9085 29.5869 28.0298 30.1051 27.0616 30.46C26.0935 30.8149 25.055 30.9994 24.0054 31.0031C22.9557 31.0068 21.9155 30.8296 20.9442 30.4815C19.9728 30.1335 19.0893 29.6214 18.3441 28.9746C17.5989 28.3278 17.0067 27.5589 16.6011 26.7118C16.1955 25.8647 15.9846 24.9559 15.9804 24.0375C15.9761 23.1191 16.1787 22.2089 16.5765 21.359C16.9743 20.509 17.5595 19.736 18.2987 19.0839C19.0379 18.4319 19.9167 17.9136 20.8848 17.5588C21.8529 17.2039 22.8914 17.0193 23.9411 17.0156ZM33.9482 12.7875C33.9482 12.1212 34.2507 11.4821 34.7892 11.0109C35.3277 10.5397 36.0581 10.275 36.8196 10.275C37.5812 10.275 38.3115 10.5397 38.85 11.0109C39.3885 11.4821 39.6911 12.1212 39.6911 12.7875C39.6911 13.4539 39.3885 14.0929 38.85 14.5641C38.3115 15.0353 37.5812 15.3 36.8196 15.3C36.0581 15.3 35.3277 15.0353 34.7892 14.5641C34.2507 14.0929 33.9482 13.4539 33.9482 12.7875ZM47.8446 15.3375C47.6625 11.9719 46.7839 8.99064 43.9661 6.53439C41.1589 4.07814 37.7518 3.30939 33.9054 3.14064C29.9411 2.94376 18.0589 2.94376 14.0946 3.14064C10.2589 3.30001 6.85178 4.06876 4.03392 6.52501C1.21607 8.98126 0.34821 11.9625 0.155353 15.3281C-0.0696472 18.7969 -0.0696472 29.1938 0.155353 32.6625C0.337496 36.0281 1.21607 39.0094 4.03392 41.4656C6.85178 43.9219 10.2482 44.6906 14.0946 44.8594C18.0589 45.0563 29.9411 45.0563 33.9054 44.8594C37.7518 44.7 41.1589 43.9313 43.9661 41.4656C46.7732 39.0094 47.6518 36.0281 47.8446 32.6625C48.0696 29.1938 48.0696 18.8063 47.8446 15.3375ZM42.7232 36.3844C41.8875 38.2219 40.2696 39.6375 38.1589 40.3781C34.9982 41.475 27.4982 41.2219 24.0054 41.2219C20.5125 41.2219 13.0018 41.4656 9.85178 40.3781C7.75178 39.6469 6.13392 38.2313 5.2875 36.3844C4.03392 33.6188 4.32321 27.0563 4.32321 24C4.32321 20.9438 4.04464 14.3719 5.2875 11.6156C6.12321 9.77814 7.74107 8.36251 9.85178 7.62189C13.0125 6.52501 20.5125 6.77814 24.0054 6.77814C27.4982 6.77814 35.0089 6.53439 38.1589 7.62189C40.2589 8.35314 41.8768 9.76876 42.7232 11.6156C43.9768 14.3813 43.6875 20.9438 43.6875 24C43.6875 27.0563 43.9768 33.6281 42.7232 36.3844Z" fill="black"/>
</g>
<defs>
<linearGradient id="paint0_linear_11_20" x1="24" y1="0" x2="24" y2="48" gradientUnits="userSpaceOnUse">
<stop stop-color="#F7B733"/>
<stop offset="1" stop-color="#FC4A1A"/>
</linearGradient>
<clipPath id="clip0_11_20">
<rect width="48" height="48" rx="8" fill="white"/>
</clipPath>
</defs>
</svg>
