<svg width="24" height="24" viewBox="0 0 24 24" fill="none" xmlns="http://www.w3.org/2000/svg">
<path d="M6.00035 4.36363C6.90393 4.36382 7.63609 5.09673 7.63609 6.00035C7.6359 6.90381 6.90381 7.6359 6.00035 7.63609C5.09673 7.63609 4.36382 6.90393 4.36363 6.00035C4.36363 5.09661 5.09661 4.36363 6.00035 4.36363Z" fill="url(#paint0_linear_8_5)"/>
<path d="M6.00035 4.36363C6.90393 4.36382 7.63609 5.09673 7.63609 6.00035C7.6359 6.90381 6.90381 7.6359 6.00035 7.63609C5.09673 7.63609 4.36382 6.90393 4.36363 6.00035C4.36363 5.09661 5.09661 4.36363 6.00035 4.36363Z" stroke="#FC4A1A"/>
<path d="M6.54527 8.72727C7.14773 8.72727 7.63605 9.21563 7.63609 9.81809V18.5456C7.636 19.1481 7.1477 19.6365 6.54527 19.6365H5.45445C4.85207 19.6364 4.36373 19.148 4.36363 18.5456V9.81809C4.36368 9.21568 4.85204 8.72732 5.45445 8.72727H6.54527Z" fill="url(#paint1_linear_8_5)"/>
<path d="M6.54527 8.72727C7.14773 8.72727 7.63605 9.21563 7.63609 9.81809V18.5456C7.636 19.1481 7.1477 19.6365 6.54527 19.6365H5.45445C4.85207 19.6364 4.36373 19.148 4.36363 18.5456V9.81809C4.36368 9.21568 4.85204 8.72732 5.45445 8.72727H6.54527Z" stroke="#FC4A1A"/>
<path d="M11.9998 8.72727C12.6023 8.72727 13.0906 9.21563 13.0906 9.81809V10.364C13.0906 10.364 13.6364 8.72727 15.8182 8.72727C17.9999 8.72727 19.6364 9.81809 19.6365 11.9997V18.5456C19.6364 19.148 19.148 19.6363 18.5457 19.6365H17.4549C16.8524 19.6365 16.3641 19.1481 16.3641 18.5456V13.0906C16.3637 10.9092 13.0906 12.0002 13.0906 13.6365V18.5456C13.0905 19.1481 12.6023 19.6365 11.9998 19.6365H10.909C10.3066 19.6364 9.81827 19.148 9.81818 18.5456V9.81809C9.81822 9.21568 10.3066 8.72732 10.909 8.72727H11.9998Z" fill="url(#paint2_linear_8_5)"/>
<path d="M11.9998 8.72727C12.6023 8.72727 13.0906 9.21563 13.0906 9.81809V10.364C13.0906 10.364 13.6364 8.72727 15.8182 8.72727C17.9999 8.72727 19.6364 9.81809 19.6365 11.9997V18.5456C19.6364 19.148 19.148 19.6363 18.5457 19.6365H17.4549C16.8524 19.6365 16.3641 19.1481 16.3641 18.5456V13.0906C16.3637 10.9092 13.0906 12.0002 13.0906 13.6365V18.5456C13.0905 19.1481 12.6023 19.6365 11.9998 19.6365H10.909C10.3066 19.6364 9.81827 19.148 9.81818 18.5456V9.81809C9.81822 9.21568 10.3066 8.72732 10.909 8.72727H11.9998Z" stroke="#FC4A1A"/>
<path d="M20.7275 0C22.5349 0.000143585 23.9999 1.4652 24 3.27246V20.7275C23.9999 22.5349 22.5349 23.9999 20.7275 24H3.27246C1.4652 23.9999 0.000143586 22.5349 0 20.7275V3.27246C0.000143976 1.4652 1.4652 0.000143977 3.27246 0H20.7275ZM3.27246 2.18164C2.67018 2.18178 2.18178 2.67018 2.18164 3.27246V20.7275C2.18178 21.3298 2.67018 21.8182 3.27246 21.8184H20.7275C21.3298 21.8182 21.8182 21.3298 21.8184 20.7275V3.27246C21.8182 2.67018 21.3298 2.18178 20.7275 2.18164H3.27246Z" fill="url(#paint3_linear_8_5)"/>
<path d="M20.7275 0C22.5349 0.000143585 23.9999 1.4652 24 3.27246V20.7275C23.9999 22.5349 22.5349 23.9999 20.7275 24H3.27246C1.4652 23.9999 0.000143586 22.5349 0 20.7275V3.27246C0.000143976 1.4652 1.4652 0.000143977 3.27246 0H20.7275ZM3.27246 2.18164C2.67018 2.18178 2.18178 2.67018 2.18164 3.27246V20.7275C2.18178 21.3298 2.67018 21.8182 3.27246 21.8184H20.7275C21.3298 21.8182 21.8182 21.3298 21.8184 20.7275V3.27246C21.8182 2.67018 21.3298 2.18178 20.7275 2.18164H3.27246Z" stroke="#FC4A1A"/>
<defs>
<linearGradient id="paint0_linear_8_5" x1="6" y1="4.36363" x2="6" y2="7.63636" gradientUnits="userSpaceOnUse">
<stop stop-color="#F7B733"/>
<stop offset="1" stop-color="#FC4A1A"/>
</linearGradient>
<linearGradient id="paint1_linear_8_5" x1="6" y1="8.72727" x2="6" y2="19.6364" gradientUnits="userSpaceOnUse">
<stop stop-color="#F7B733"/>
<stop offset="1" stop-color="#FC4A1A"/>
</linearGradient>
<linearGradient id="paint2_linear_8_5" x1="14.7273" y1="8.72727" x2="14.7273" y2="19.6364" gradientUnits="userSpaceOnUse">
<stop stop-color="#F7B733"/>
<stop offset="1" stop-color="#FC4A1A"/>
</linearGradient>
<linearGradient id="paint3_linear_8_5" x1="12" y1="0" x2="12" y2="24" gradientUnits="userSpaceOnUse">
<stop stop-color="#F7B733"/>
<stop offset="1" stop-color="#FC4A1A"/>
</linearGradient>
</defs>
</svg>
