<svg width="24" height="24" viewBox="0 0 24 24" fill="none" xmlns="http://www.w3.org/2000/svg">
<path d="M6.00034 4.36362C6.90391 4.36381 7.63608 5.09671 7.63608 6.00034C7.63589 6.9038 6.9038 7.63589 6.00034 7.63608C5.09671 7.63608 4.36381 6.90391 4.36362 6.00034C4.36362 5.09659 5.09659 4.36362 6.00034 4.36362Z" fill="#0F0F0F"/>
<path d="M6.00034 4.36362C6.90391 4.36381 7.63608 5.09671 7.63608 6.00034C7.63589 6.9038 6.9038 7.63589 6.00034 7.63608C5.09671 7.63608 4.36381 6.90391 4.36362 6.00034C4.36362 5.09659 5.09659 4.36362 6.00034 4.36362Z" stroke="black"/>
<path d="M6.54526 8.72726C7.14772 8.72726 7.63603 9.21563 7.63608 9.81808V18.5456C7.63598 19.1481 7.14769 19.6364 6.54526 19.6364H5.45444C4.85205 19.6364 4.36371 19.148 4.36362 18.5456V9.81808C4.36366 9.21567 4.85202 8.72731 5.45444 8.72726H6.54526Z" fill="#0F0F0F"/>
<path d="M6.54526 8.72726C7.14772 8.72726 7.63603 9.21563 7.63608 9.81808V18.5456C7.63598 19.1481 7.14769 19.6364 6.54526 19.6364H5.45444C4.85205 19.6364 4.36371 19.148 4.36362 18.5456V9.81808C4.36366 9.21567 4.85202 8.72731 5.45444 8.72726H6.54526Z" stroke="black"/>
<path d="M11.9998 8.72726C12.6023 8.72726 13.0906 9.21563 13.0906 9.81808V10.364C13.0906 10.364 13.6364 8.72726 15.8182 8.72726C17.9999 8.72726 19.6364 9.81808 19.6365 11.9997V18.5456C19.6364 19.148 19.148 19.6363 18.5457 19.6364H17.4549C16.8524 19.6364 16.3641 19.1481 16.3641 18.5456V13.0905C16.3637 10.9092 13.0906 12.0002 13.0906 13.6364V18.5456C13.0905 19.1481 12.6023 19.6364 11.9998 19.6364H10.909C10.3066 19.6364 9.81827 19.148 9.81818 18.5456V9.81808C9.81822 9.21567 10.3066 8.72731 10.909 8.72726H11.9998Z" fill="#0F0F0F"/>
<path d="M11.9998 8.72726C12.6023 8.72726 13.0906 9.21563 13.0906 9.81808V10.364C13.0906 10.364 13.6364 8.72726 15.8182 8.72726C17.9999 8.72726 19.6364 9.81808 19.6365 11.9997V18.5456C19.6364 19.148 19.148 19.6363 18.5457 19.6364H17.4549C16.8524 19.6364 16.3641 19.1481 16.3641 18.5456V13.0905C16.3637 10.9092 13.0906 12.0002 13.0906 13.6364V18.5456C13.0905 19.1481 12.6023 19.6364 11.9998 19.6364H10.909C10.3066 19.6364 9.81827 19.148 9.81818 18.5456V9.81808C9.81822 9.21567 10.3066 8.72731 10.909 8.72726H11.9998Z" stroke="black"/>
<path d="M20.7275 0C22.5349 0.000143585 23.9999 1.4652 24 3.27246V20.7275C23.9999 22.5349 22.5349 23.9999 20.7275 24H3.27246C1.4652 23.9999 0.000143586 22.5349 0 20.7275V3.27246C0.000143976 1.4652 1.4652 0.000143977 3.27246 0H20.7275ZM3.27246 2.18164C2.67018 2.18178 2.18178 2.67018 2.18164 3.27246V20.7275C2.18178 21.3298 2.67018 21.8182 3.27246 21.8184H20.7275C21.3298 21.8182 21.8182 21.3298 21.8184 20.7275V3.27246C21.8182 2.67018 21.3298 2.18178 20.7275 2.18164H3.27246Z" fill="#0F0F0F"/>
<path d="M20.7275 0C22.5349 0.000143585 23.9999 1.4652 24 3.27246V20.7275C23.9999 22.5349 22.5349 23.9999 20.7275 24H3.27246C1.4652 23.9999 0.000143586 22.5349 0 20.7275V3.27246C0.000143976 1.4652 1.4652 0.000143977 3.27246 0H20.7275ZM3.27246 2.18164C2.67018 2.18178 2.18178 2.67018 2.18164 3.27246V20.7275C2.18178 21.3298 2.67018 21.8182 3.27246 21.8184H20.7275C21.3298 21.8182 21.8182 21.3298 21.8184 20.7275V3.27246C21.8182 2.67018 21.3298 2.18178 20.7275 2.18164H3.27246Z" stroke="black"/>
</svg>
