<svg width="288" height="288" viewBox="0 0 288 288" fill="none" xmlns="http://www.w3.org/2000/svg">
<g clip-path="url(#clip0_2_2642)">
<rect width="288" height="288" rx="10" fill="#2C7DFA"/>
<circle cx="266.5" cy="339.5" r="135" fill="#3685FF"/>
<circle cx="32.5" cy="-0.5" r="164" fill="#3685FF"/>
<path fill-rule="evenodd" clip-rule="evenodd" d="M124.69 64H119.172V69.5172H124.69V64ZM152.276 64H146.759V69.5172H152.276V64ZM152.276 64H157.793V69.5172H152.276V64ZM168.828 64H163.31V69.5172H168.828V64ZM108.138 69.5172H113.655H113.655H119.172V75.0345V80.5517V86.069V91.5862V97.1035H113.655V102.621V108.138V113.655H108.138V108.138V102.621V97.1035H113.655V91.5862V86.069H108.138V80.5517V75.0345V69.5172ZM124.69 69.5172H130.207V75.0345L124.69 75.0345V80.5517H130.207V86.069H124.69V80.5517H119.172V75.0345L124.69 75.0345V69.5172ZM135.724 69.5172H130.207V75.0345V80.5517H135.724H141.241V75.0345V69.5172H135.724ZM146.759 69.5172H141.241V75.0345H146.759L146.759 80.5517H152.276V75.0345L146.759 75.0345V69.5172ZM163.31 69.5172H157.793V75.0345H163.31V69.5172ZM174.345 69.5172H179.862V75.0345V80.5517V86.069V91.5862V97.1035V102.621V108.138H174.345V102.621V97.1035V91.5862V86.069V80.5517V75.0345V69.5172ZM179.862 108.138H185.379V113.655H179.862L179.862 108.138ZM168.828 75.0345H163.31V80.5517H168.828V75.0345ZM152.276 80.5517H157.793H163.31V86.069H157.793V91.5862H152.276V86.069V80.5517ZM146.759 86.069H152.276V91.5862V97.1035H146.759V91.5862V86.069ZM146.759 97.1035L146.759 102.621H152.276V108.138H146.759H141.241V102.621V97.1035H146.759ZM168.828 86.069H174.345V91.5862H168.828V86.069ZM135.724 91.5862H130.207V97.1035V102.621H135.724V97.1035V91.5862ZM124.69 97.1035H119.172V102.621H124.69V108.138H119.172V113.655H124.69V108.138H130.207V102.621H124.69V97.1035ZM152.276 97.1035H157.793V102.621V108.138H163.31V113.655V119.172V124.69H157.793H152.276V119.172V113.655V108.138V102.621V97.1035ZM168.828 97.1035H163.31V102.621V108.138H168.828L168.828 113.655H163.31V119.172H168.828H174.345V113.655V108.138H168.828V102.621V97.1035ZM64 108.138H69.5172V113.655V119.172H64V113.655V108.138ZM69.5172 124.69L69.5172 119.172L75.0345 119.172V124.69H69.5172ZM69.5172 130.207H64V124.69H69.5172L69.5172 130.207ZM69.5172 130.207H75.0345V135.724H69.5172L69.5172 130.207ZM102.621 108.138H97.1035V113.655H102.621V108.138ZM185.379 108.138H190.897V113.655H185.379V108.138ZM190.897 113.655H196.414V119.172H190.897L190.897 113.655ZM207.448 108.138H201.931V113.655H196.414V119.172H201.931L201.931 113.655H207.448L207.448 119.172H212.965V113.655V108.138H207.448ZM218.483 108.138H212.966V113.655V119.172H218.483V113.655V108.138ZM80.5517 113.655H75.0345V119.172V124.69V130.207H80.5517V124.69H86.0689V119.172L80.5517 119.172V113.655ZM91.5862 113.655H97.1034V119.172H91.5862V113.655ZM91.5862 124.69H86.069V119.172L91.5862 119.172L91.5862 124.69ZM91.5862 135.724V130.207L91.5862 124.69H97.1034V130.207V135.724H91.5862ZM91.5862 135.724L91.5862 141.241V146.759H86.069V141.241V135.724H91.5862ZM141.241 113.655H135.724V119.172L130.207 119.172V124.69V130.207H135.724L135.724 135.724H141.241V130.207V124.69V119.172V113.655ZM97.1035 119.172H102.621H102.621H108.138V124.69V130.207H102.621V124.69H97.1035V119.172ZM102.621 135.724H97.1035V130.207H102.621L102.621 135.724ZM102.621 141.241L102.621 135.724H108.138V141.241H102.621ZM102.621 141.241L102.621 146.759H97.1035V141.241H102.621ZM108.138 119.172H113.655H113.655H119.172V124.69V130.207H113.655V135.724H108.138V130.207V124.69V119.172ZM113.655 135.724H119.172V141.241V146.759V152.276H113.655H108.138V146.759V141.241H113.655L113.655 135.724ZM141.241 119.172H146.759H152.276V124.69H146.759H141.241V119.172ZM119.172 124.69H124.69V130.207V135.724V141.241H119.172V135.724V130.207V124.69ZM179.862 124.69H174.345V130.207V135.724V141.241H179.862L179.862 146.759H185.379V141.241V135.724H179.862V130.207V124.69ZM185.379 124.69H190.897H196.414V130.207V135.724H190.897V141.241H185.379V135.724V130.207V124.69ZM190.897 141.241H196.414V146.759V152.276V157.793V163.31H190.897H185.379V157.793H190.897V152.276V146.759L190.897 141.241ZM201.931 124.69H207.448V130.207H201.931V124.69ZM152.276 130.207H146.759V135.724H152.276V130.207ZM152.276 130.207H157.793V135.724V141.241H152.276V135.724V130.207ZM157.793 141.241H163.31V146.759H157.793L157.793 141.241ZM174.345 130.207H168.828V135.724V141.241H163.31V146.759V152.276V157.793V163.31H168.828L168.828 168.828L163.31 168.828V174.345H168.828L168.828 168.828H174.345V163.31V157.793V152.276V146.759H168.828L168.828 141.241H174.345V135.724V130.207ZM224 130.207H218.483V135.724V141.241H224V135.724V130.207ZM75.0345 135.724H80.5517V141.241H75.0345V135.724ZM196.414 135.724H201.931V141.241H196.414V135.724ZM207.448 163.31H212.965V157.793V152.276V146.759V141.241H207.448H201.931L201.931 146.759H196.414V152.276H201.931L201.931 157.793H196.414V163.31H201.931L201.931 168.828L196.414 168.828V174.345V179.862V185.379V190.897V196.414V201.931H201.931L201.931 207.448H196.414V212.966H201.931L201.931 218.483H196.414V224H201.931H207.448H212.965V218.483V212.966V207.448V201.931H207.448V196.414H201.931V190.897H207.448H212.965V185.379H207.448L207.448 179.862H212.965V174.345H207.448V179.862H201.931V174.345L201.931 168.828H207.448L207.448 163.31ZM207.448 163.31L207.448 157.793H201.931L201.931 163.31H207.448ZM201.931 152.276L201.931 146.759H207.448L207.448 152.276H201.931ZM218.483 135.724H212.966V141.241H218.483V135.724ZM69.5172 141.241H64V146.759H69.5172H75.0345V141.241H69.5172ZM124.69 146.759H119.172V152.276H124.69L124.69 157.793V163.31V168.828L119.172 168.828V174.345H124.69L124.69 179.862H119.172V185.379H124.69L124.69 179.862H130.207V174.345H124.69L124.69 168.828H130.207V163.31V157.793V152.276H124.69V146.759ZM146.759 146.759H152.276V152.276H146.759V146.759ZM218.483 146.759H224V152.276H218.483V146.759ZM69.5172 152.276H64V157.793V163.31V168.828V174.345V179.862H69.5172V174.345V168.828H75.0345V163.31H69.5172V157.793V152.276ZM86.069 152.276H91.5862H97.1034V157.793H91.5862H86.069V152.276ZM97.1035 152.276H102.621V157.793H97.1035V152.276ZM102.621 163.31L102.621 157.793H108.138V163.31H102.621ZM102.621 163.31L102.621 168.828H97.1035V163.31H102.621ZM152.276 152.276H157.793H163.31V157.793V163.31H157.793L157.793 157.793H152.276V152.276ZM113.655 157.793H108.138V163.31V168.828H113.655L113.655 174.345V179.862H108.138V185.379H113.655H119.172V179.862V174.345V168.828V163.31V157.793H113.655ZM135.724 157.793H141.241V163.31H135.724V157.793ZM146.759 157.793H141.241V163.31H146.759L146.759 168.828H152.276V163.31H146.759V157.793ZM179.862 157.793H174.345V163.31H179.862V157.793ZM212.966 157.793H218.483V163.31H212.966V157.793ZM224 157.793H218.483V163.31V168.828H224V163.31V157.793ZM80.5517 163.31H86.0689V168.828V174.345H80.5517H75.0345V168.828L80.5517 168.828V163.31ZM91.5862 163.31H86.069V168.828H91.5862L91.5862 174.345H86.069V179.862H91.5862L91.5862 174.345H97.1034V168.828V163.31H91.5862ZM135.724 168.828H130.207V174.345H135.724H141.241V168.828H135.724ZM174.345 168.828H179.862H185.379V174.345V179.862H179.862V185.379V190.897V196.414H185.379V201.931V207.448V212.966V218.483V224H179.862V218.483V212.966V207.448L179.862 201.931H174.345V196.414V190.897V185.379V179.862V174.345V168.828ZM185.379 168.828H190.897H196.414V174.345V179.862H190.897H185.379V174.345V168.828ZM102.621 174.345H97.1035V179.862H102.621H108.138V174.345H102.621ZM146.759 174.345H141.241V179.862V185.379H146.759V179.862H152.276V174.345H146.759ZM163.31 174.345H157.793V179.862V185.379H163.31V179.862V174.345ZM212.966 174.345H218.483V179.862H212.966V174.345ZM224 174.345H218.483V179.862H224V174.345ZM168.828 179.862H163.31V185.379V190.897H168.828L168.828 196.414V201.931H163.31V207.448H168.828L168.828 212.966V218.483H163.31V224H168.828H174.345V218.483V212.966V207.448H168.828L168.828 201.931H174.345V196.414V190.897V185.379H168.828V179.862ZM135.724 185.379H130.207V190.897H135.724V185.379ZM190.897 185.379H185.379V190.897H190.897V185.379ZM124.69 190.897H119.172V196.414H124.69H130.207V190.897H124.69ZM146.759 190.897H141.241V196.414V201.931V207.448H146.759L146.759 212.966V218.483H141.241V224H146.759L146.759 218.483H152.276V212.966V207.448H146.759V201.931V196.414H152.276V190.897H146.759ZM157.793 190.897H152.276V196.414V201.931H157.793L157.793 207.448H152.276V212.966H157.793H163.31V207.448V201.931H157.793V196.414V190.897ZM224 190.897H218.483V196.414H224V190.897ZM130.207 196.414H135.724H141.241V201.931V207.448H135.724L135.724 201.931H130.207V196.414ZM190.897 196.414H185.379V201.931H190.897L190.897 207.448H185.379V212.966H190.897L190.897 218.483H185.379V224H190.897H196.414V218.483V212.966V207.448V201.931V196.414H190.897ZM119.172 201.931H113.655V207.448V212.966H119.172V207.448V201.931ZM119.172 201.931H124.69H130.207V207.448H124.69V212.966H119.172V207.448V201.931ZM212.966 201.931H218.483V207.448V212.966H212.966V207.448V201.931ZM130.207 212.966H135.724V218.483H130.207V212.966ZM135.724 218.483H141.241V224H135.724L135.724 218.483ZM224 212.966H218.483V218.483H224V212.966ZM108.138 218.483H113.655H119.172V224H113.655H108.138V218.483ZM124.69 218.483H130.207V224H124.69V218.483ZM163.31 218.483H157.793V224H163.31V218.483Z" fill="white"/>
<path fill-rule="evenodd" clip-rule="evenodd" d="M69.7931 64H96.8276H102.621V69.7931V96.8276V102.621H96.8276H69.7931H64V96.8276V69.7931V64H69.7931ZM69.7931 96.8276H96.8276V69.7931H69.7931V96.8276Z" fill="white"/>
<path fill-rule="evenodd" clip-rule="evenodd" d="M191.172 64H218.207H224V69.7931V96.8276V102.621H218.207H191.172H185.379V96.8276V69.7931V64H191.172ZM191.172 96.8276H218.207V69.7931H191.172V96.8276Z" fill="white"/>
<path fill-rule="evenodd" clip-rule="evenodd" d="M69.7931 185.379H96.8276H102.621V191.172V218.207V224H96.8276H69.7931H64V218.207V191.172V185.379H69.7931ZM69.7931 218.207H96.8276V191.172H69.7931V218.207Z" fill="white"/>
<rect x="75.0345" y="75.0345" width="16.5517" height="16.5517" fill="white"/>
<rect x="196.414" y="75.0345" width="16.5517" height="16.5517" fill="white"/>
<rect x="75.0345" y="196.414" width="16.5517" height="16.5517" fill="white"/>
</g>
<defs>
<clipPath id="clip0_2_2642">
<rect width="288" height="288" rx="10" fill="white"/>
</clipPath>
</defs>
</svg>
